# xmcd
#
# Track frame offsets:
#	150
#	21634
#	39786
#	60481
#	76761
#	97026
#	114106
#	131574
#	149204
#	166641
#	186929
#	206681
#	226146
#	248731
#	269656
#	290724
#
# Disc length: 4105 seconds
#
# Revision: 11
# Processed by: cddbd v1.5.2PL0 Copyright (c) Steve Scherf et al.
# Submitted via: audiograbber 1.83.01
#
DISCID=e3100710
DTITLE=Corneille - Parce Qu'On Vient De Loin
DYEAR=2003
DGENRE=R&B
TTITLE0=Seul Au Monde
TTITLE1=Terre
TTITLE2=Sans Rancune
TTITLE3=Ça Me Va
TTITLE4=Rêves De Star
TTITLE5=Avec Classe
TTITLE6=Parce Qu'On Vient De Loin
TTITLE7=On Regarde
TTITLE8=Tout Va Bien
TTITLE9=Ensemble
TTITLE10=Toi
TTITLE11=Va (On Se Verra)
TTITLE12=Qu'est-Ce Que Tu Te Fais?
TTITLE13=Comme Un Fils
TTITLE14=Laissez-Nous Vivre
TTITLE15=Avec Classe (Angel Dust Remix)
EXTD=YEAR: 2003
EXTT0=
EXTT1=
EXTT2=
EXTT3=
EXTT4=
EXTT5=
EXTT6=
EXTT7=
EXTT8=
EXTT9=
EXTT10=
EXTT11=
EXTT12=
EXTT13=
EXTT14=
EXTT15=
PLAYORDER=
